<mxfile host="app.diagrams.net" modified="2021-04-09T14:54:14.492Z" agent="5.0 (Macintosh; Intel Mac OS X 11_2_3) AppleWebKit/537.36 (KHTML, like Gecko) Chrome/89.0.4389.114 Safari/537.36" etag="C2_SugkdhoZFznh7KYLh" version="14.5.9" type="github">
  <diagram id="x9rGAIRyUGRZViN9PtsV" name="Page-1">
    <mxGraphModel dx="1252" dy="843" grid="1" gridSize="10" guides="1" tooltips="1" connect="1" arrows="1" fold="1" page="1" pageScale="1" pageWidth="827" pageHeight="1169" math="0" shadow="0">
      <root>
        <mxCell id="0" />
        <mxCell id="1" parent="0" />
        <mxCell id="BlxjPcJyL6c8_uL2xg1w-2" value="Postgresq DBl" style="verticalAlign=top;align=left;spacingTop=8;spacingLeft=2;spacingRight=12;shape=cube;size=10;direction=south;fontStyle=4;html=1;" vertex="1" parent="1">
          <mxGeometry x="610" y="519" width="100" height="90" as="geometry" />
        </mxCell>
        <mxCell id="BlxjPcJyL6c8_uL2xg1w-19" value="" style="edgeStyle=orthogonalEdgeStyle;rounded=0;orthogonalLoop=1;jettySize=auto;html=1;startArrow=none;startFill=0;endArrow=none;endFill=0;strokeWidth=4;" edge="1" parent="1" source="BlxjPcJyL6c8_uL2xg1w-3" target="BlxjPcJyL6c8_uL2xg1w-4">
          <mxGeometry relative="1" as="geometry" />
        </mxCell>
        <mxCell id="BlxjPcJyL6c8_uL2xg1w-21" value="" style="edgeStyle=orthogonalEdgeStyle;rounded=0;orthogonalLoop=1;jettySize=auto;html=1;startArrow=none;startFill=0;endArrow=none;endFill=0;strokeWidth=4;exitX=0;exitY=0;exitDx=40;exitDy=0;exitPerimeter=0;" edge="1" parent="1" source="BlxjPcJyL6c8_uL2xg1w-22" target="BlxjPcJyL6c8_uL2xg1w-2">
          <mxGeometry relative="1" as="geometry">
            <mxPoint x="559" y="625" as="sourcePoint" />
          </mxGeometry>
        </mxCell>
        <mxCell id="BlxjPcJyL6c8_uL2xg1w-25" style="edgeStyle=orthogonalEdgeStyle;rounded=0;orthogonalLoop=1;jettySize=auto;html=1;entryX=-0.011;entryY=0.164;entryDx=0;entryDy=0;entryPerimeter=0;startArrow=none;startFill=0;endArrow=none;endFill=0;strokeWidth=4;" edge="1" parent="1" source="BlxjPcJyL6c8_uL2xg1w-3" target="BlxjPcJyL6c8_uL2xg1w-22">
          <mxGeometry relative="1" as="geometry" />
        </mxCell>
        <mxCell id="BlxjPcJyL6c8_uL2xg1w-3" value="Business Logic" style="verticalAlign=top;align=left;spacingTop=8;spacingLeft=2;spacingRight=12;shape=cube;size=10;direction=south;fontStyle=4;html=1;" vertex="1" parent="1">
          <mxGeometry x="450" y="370" width="100" height="120" as="geometry" />
        </mxCell>
        <mxCell id="BlxjPcJyL6c8_uL2xg1w-24" style="edgeStyle=orthogonalEdgeStyle;rounded=0;orthogonalLoop=1;jettySize=auto;html=1;exitX=0;exitY=0;exitDx=120;exitDy=55;exitPerimeter=0;startArrow=none;startFill=0;endArrow=none;endFill=0;strokeWidth=4;" edge="1" parent="1" source="BlxjPcJyL6c8_uL2xg1w-4">
          <mxGeometry relative="1" as="geometry">
            <mxPoint x="365" y="577" as="targetPoint" />
          </mxGeometry>
        </mxCell>
        <mxCell id="BlxjPcJyL6c8_uL2xg1w-4" value="GraphQL API" style="verticalAlign=top;align=left;spacingTop=8;spacingLeft=2;spacingRight=12;shape=cube;size=10;direction=south;fontStyle=4;html=1;" vertex="1" parent="1">
          <mxGeometry x="320" y="370" width="100" height="120" as="geometry" />
        </mxCell>
        <mxCell id="BlxjPcJyL6c8_uL2xg1w-16" style="edgeStyle=orthogonalEdgeStyle;rounded=0;orthogonalLoop=1;jettySize=auto;html=1;exitX=0;exitY=0;exitDx=55;exitDy=0;exitPerimeter=0;entryX=0.483;entryY=0.99;entryDx=0;entryDy=0;entryPerimeter=0;startArrow=none;startFill=0;strokeWidth=4;endArrow=none;endFill=0;" edge="1" parent="1" source="BlxjPcJyL6c8_uL2xg1w-5" target="BlxjPcJyL6c8_uL2xg1w-4">
          <mxGeometry relative="1" as="geometry" />
        </mxCell>
        <mxCell id="BlxjPcJyL6c8_uL2xg1w-23" style="edgeStyle=orthogonalEdgeStyle;rounded=0;orthogonalLoop=1;jettySize=auto;html=1;exitX=0;exitY=0;exitDx=120;exitDy=55;exitPerimeter=0;startArrow=none;startFill=0;endArrow=none;endFill=0;strokeWidth=4;" edge="1" parent="1" source="BlxjPcJyL6c8_uL2xg1w-5">
          <mxGeometry relative="1" as="geometry">
            <mxPoint x="245" y="579" as="targetPoint" />
          </mxGeometry>
        </mxCell>
        <mxCell id="BlxjPcJyL6c8_uL2xg1w-5" value="LiveView" style="verticalAlign=top;align=left;spacingTop=8;spacingLeft=2;spacingRight=12;shape=cube;size=10;direction=south;fontStyle=4;html=1;" vertex="1" parent="1">
          <mxGeometry x="200" y="370" width="100" height="120" as="geometry" />
        </mxCell>
        <mxCell id="BlxjPcJyL6c8_uL2xg1w-7" style="edgeStyle=orthogonalEdgeStyle;rounded=0;orthogonalLoop=1;jettySize=auto;html=1;entryX=0;entryY=0;entryDx=65;entryDy=100;entryPerimeter=0;strokeWidth=4;startArrow=open;startFill=0;" edge="1" parent="1" source="BlxjPcJyL6c8_uL2xg1w-6" target="BlxjPcJyL6c8_uL2xg1w-5">
          <mxGeometry relative="1" as="geometry" />
        </mxCell>
        <mxCell id="BlxjPcJyL6c8_uL2xg1w-6" value="" style="pointerEvents=1;shadow=0;dashed=0;html=1;strokeColor=none;fillColor=#434445;aspect=fixed;labelPosition=center;verticalLabelPosition=bottom;verticalAlign=top;align=center;outlineConnect=0;shape=mxgraph.vvd.web_browser;" vertex="1" parent="1">
          <mxGeometry x="40" y="110" width="178.59" height="126.8" as="geometry" />
        </mxCell>
        <mxCell id="BlxjPcJyL6c8_uL2xg1w-12" style="edgeStyle=orthogonalEdgeStyle;rounded=0;orthogonalLoop=1;jettySize=auto;html=1;entryX=0;entryY=0;entryDx=0;entryDy=45;entryPerimeter=0;startArrow=open;startFill=0;strokeWidth=4;exitX=0;exitY=0;exitDx=56.8;exitDy=35;exitPerimeter=0;" edge="1" parent="1" source="BlxjPcJyL6c8_uL2xg1w-9" target="BlxjPcJyL6c8_uL2xg1w-4">
          <mxGeometry relative="1" as="geometry" />
        </mxCell>
        <mxCell id="BlxjPcJyL6c8_uL2xg1w-13" value="" style="group" vertex="1" connectable="0" parent="1">
          <mxGeometry x="287" y="83.4" width="180" height="180" as="geometry" />
        </mxCell>
        <mxCell id="BlxjPcJyL6c8_uL2xg1w-8" value="" style="shape=image;html=1;verticalAlign=top;verticalLabelPosition=bottom;labelBackgroundColor=#ffffff;imageAspect=0;aspect=fixed;image=https://cdn4.iconfinder.com/data/icons/miu/24/device-iPhone-smartphone-vertical-glyph-128.png" vertex="1" parent="BlxjPcJyL6c8_uL2xg1w-13">
          <mxGeometry width="180" height="180" as="geometry" />
        </mxCell>
        <mxCell id="BlxjPcJyL6c8_uL2xg1w-9" value="PaxKit &lt;br&gt;App" style="verticalAlign=top;align=left;spacingTop=8;spacingLeft=2;spacingRight=12;shape=cube;size=10;direction=south;fontStyle=4;html=1;fillColor=#d5e8d4;strokeColor=#82b366;" vertex="1" parent="BlxjPcJyL6c8_uL2xg1w-13">
          <mxGeometry x="63" y="73.2" width="60" height="56.8" as="geometry" />
        </mxCell>
        <mxCell id="BlxjPcJyL6c8_uL2xg1w-14" value="PraxKit&lt;br&gt;Web" style="text;html=1;strokeColor=#82b366;fillColor=#d5e8d4;align=center;verticalAlign=middle;whiteSpace=wrap;rounded=0;" vertex="1" parent="1">
          <mxGeometry x="60" y="163.4" width="50" height="46.6" as="geometry" />
        </mxCell>
        <mxCell id="BlxjPcJyL6c8_uL2xg1w-22" value="Phoenix Framework&lt;br&gt;" style="verticalAlign=top;align=left;spacingTop=8;spacingLeft=2;spacingRight=12;shape=cube;size=10;direction=south;fontStyle=4;html=1;" vertex="1" parent="1">
          <mxGeometry x="200" y="524" width="360" height="90" as="geometry" />
        </mxCell>
      </root>
    </mxGraphModel>
  </diagram>
</mxfile>
